<?xml version="1.0" standalone="no"?>
<!DOCTYPE svg PUBLIC "-//W3C//DTD SVG 20010904//EN"
 "http://www.w3.org/TR/2001/REC-SVG-20010904/DTD/svg10.dtd">
<svg version="1.0" xmlns="http://www.w3.org/2000/svg"
 width="16.000000pt" height="16.000000pt" viewBox="0 0 16.000000 16.000000"
 preserveAspectRatio="xMidYMid meet">
<metadata>
Created by potrace 1.11, written by Peter Selinger 2001-2013
</metadata>
<g transform="translate(0.000000,16.000000) scale(0.005369,-0.005369)"
fill="#000000" stroke="none">
<path d="M1588 2876 c-1 -2 -52 -6 -113 -9 -586 -32 -1039 -531 -1038 -1142 0
-217 61 -431 177 -620 64 -106 86 -134 166 -219 164 -172 408 -303 620 -331
47 -6 249 -7 280 -1 14 3 43 7 65 10 81 12 231 61 318 103 146 72 254 155 339
263 34 42 93 149 86 154 -2 2 -84 49 -182 105 -131 74 -181 98 -187 89 -80
-140 -151 -210 -274 -268 -106 -50 -169 -64 -290 -63 -145 0 -262 41 -374 131
-183 148 -281 357 -287 617 -9 432 256 764 621 778 250 9 460 -94 565 -278 17
-30 34 -55 37 -55 5 0 32 18 208 138 61 41 116 80 123 86 17 16 -66 141 -149
224 -163 163 -380 260 -619 278 -36 3 -70 7 -77 9 -6 2 -13 2 -15 1z"/>
</g>
</svg>
